<mxfile host="Electron" modified="2024-05-14T08:19:53.337Z" agent="Mozilla/5.0 (Windows NT 10.0; Win64; x64) AppleWebKit/537.36 (KHTML, like Gecko) draw.io/24.4.0 Chrome/120.0.6099.109 Electron/28.1.0 Safari/537.36" etag="2NebOIONskcrBqOSXyvr" version="24.4.0" type="device" pages="3">
  <diagram name="dataType" id="__BwD6lJjssCEfygq-q3">
    <mxGraphModel dx="1050" dy="-2222" grid="1" gridSize="10" guides="1" tooltips="1" connect="1" arrows="1" fold="1" page="1" pageScale="1" pageWidth="291" pageHeight="413" math="0" shadow="0">
      <root>
        <mxCell id="0" />
        <mxCell id="1" parent="0" />
        <mxCell id="CGsgj8HIXAb8GKsSNsu9-1" value="数据类型" style="text;align=center;verticalAlign=middle;rounded=0;fontFamily=OPPO Sans;fontSize=18;labelBackgroundColor=none;fillColor=none;strokeColor=none;" vertex="1" parent="1">
          <mxGeometry x="90" y="3100" width="90" height="40" as="geometry" />
        </mxCell>
        <mxCell id="CGsgj8HIXAb8GKsSNsu9-2" value="基本数据类型" style="text;align=center;verticalAlign=middle;rounded=0;fontFamily=OPPO Sans;fontSize=18;labelBackgroundColor=none;fillColor=none;strokeColor=none;" vertex="1" parent="1">
          <mxGeometry x="190" y="3018" width="115" height="40" as="geometry" />
        </mxCell>
        <mxCell id="CGsgj8HIXAb8GKsSNsu9-3" value="引用数据类型" style="text;align=center;verticalAlign=middle;rounded=0;fontFamily=OPPO Sans;fontSize=18;labelBackgroundColor=none;fillColor=none;strokeColor=none;" vertex="1" parent="1">
          <mxGeometry x="190" y="3180" width="115" height="40" as="geometry" />
        </mxCell>
        <mxCell id="CGsgj8HIXAb8GKsSNsu9-4" value="数值型" style="text;align=center;verticalAlign=middle;rounded=0;fontFamily=OPPO Sans;fontSize=18;labelBackgroundColor=none;fillColor=none;strokeColor=none;" vertex="1" parent="1">
          <mxGeometry x="325" y="2953" width="65" height="40" as="geometry" />
        </mxCell>
        <mxCell id="CGsgj8HIXAb8GKsSNsu9-5" value="字符型" style="text;align=center;verticalAlign=middle;rounded=0;fontFamily=OPPO Sans;fontSize=18;labelBackgroundColor=none;fillColor=none;strokeColor=none;" vertex="1" parent="1">
          <mxGeometry x="325" y="3018" width="65" height="40" as="geometry" />
        </mxCell>
        <mxCell id="CGsgj8HIXAb8GKsSNsu9-6" value="布尔型" style="text;align=center;verticalAlign=middle;rounded=0;fontFamily=OPPO Sans;fontSize=18;labelBackgroundColor=none;fillColor=none;strokeColor=none;" vertex="1" parent="1">
          <mxGeometry x="325" y="3078" width="65" height="40" as="geometry" />
        </mxCell>
        <mxCell id="CGsgj8HIXAb8GKsSNsu9-7" value="整数类型" style="text;align=center;verticalAlign=middle;rounded=0;fontFamily=OPPO Sans;fontSize=18;labelBackgroundColor=none;fillColor=none;strokeColor=none;" vertex="1" parent="1">
          <mxGeometry x="405" y="2920" width="78.5" height="40" as="geometry" />
        </mxCell>
        <mxCell id="CGsgj8HIXAb8GKsSNsu9-8" value="浮点类型" style="text;align=center;verticalAlign=middle;rounded=0;fontFamily=OPPO Sans;fontSize=18;labelBackgroundColor=none;fillColor=none;strokeColor=none;" vertex="1" parent="1">
          <mxGeometry x="405" y="2978" width="78.5" height="40" as="geometry" />
        </mxCell>
        <mxCell id="CGsgj8HIXAb8GKsSNsu9-9" value="类" style="text;align=center;verticalAlign=middle;rounded=0;fontFamily=OPPO Sans;fontSize=18;labelBackgroundColor=none;fillColor=none;strokeColor=none;" vertex="1" parent="1">
          <mxGeometry x="325" y="3123" width="23" height="30" as="geometry" />
        </mxCell>
        <mxCell id="CGsgj8HIXAb8GKsSNsu9-10" value="接口" style="text;align=center;verticalAlign=middle;rounded=0;fontFamily=OPPO Sans;fontSize=18;labelBackgroundColor=none;fillColor=none;strokeColor=none;" vertex="1" parent="1">
          <mxGeometry x="325" y="3185" width="40" height="30" as="geometry" />
        </mxCell>
        <mxCell id="CGsgj8HIXAb8GKsSNsu9-11" value="数组" style="text;align=center;verticalAlign=middle;rounded=0;fontFamily=OPPO Sans;fontSize=18;labelBackgroundColor=none;fillColor=none;strokeColor=none;" vertex="1" parent="1">
          <mxGeometry x="325" y="3245" width="40" height="30" as="geometry" />
        </mxCell>
        <mxCell id="CGsgj8HIXAb8GKsSNsu9-12" value="" style="shape=curlyBracket;rounded=1;labelPosition=left;verticalLabelPosition=middle;align=right;verticalAlign=middle;strokeColor=default;fontFamily=OPPO Sans;fontSize=18;fontColor=default;fillColor=default;" vertex="1" parent="1">
          <mxGeometry x="175" y="3040" width="20" height="160" as="geometry" />
        </mxCell>
        <mxCell id="CGsgj8HIXAb8GKsSNsu9-13" value="" style="shape=curlyBracket;rounded=1;labelPosition=left;verticalLabelPosition=middle;align=right;verticalAlign=middle;strokeColor=default;fontFamily=OPPO Sans;fontSize=18;fontColor=default;fillColor=default;" vertex="1" parent="1">
          <mxGeometry x="305" y="2978" width="20" height="120" as="geometry" />
        </mxCell>
        <mxCell id="CGsgj8HIXAb8GKsSNsu9-14" value="" style="shape=curlyBracket;rounded=1;labelPosition=left;verticalLabelPosition=middle;align=right;verticalAlign=middle;strokeColor=default;fontFamily=OPPO Sans;fontSize=18;fontColor=default;fillColor=default;" vertex="1" parent="1">
          <mxGeometry x="305" y="3140" width="20" height="120" as="geometry" />
        </mxCell>
        <mxCell id="CGsgj8HIXAb8GKsSNsu9-15" value="" style="shape=curlyBracket;rounded=1;labelPosition=left;verticalLabelPosition=middle;align=right;verticalAlign=middle;strokeColor=default;fontFamily=OPPO Sans;fontSize=18;fontColor=default;fillColor=default;" vertex="1" parent="1">
          <mxGeometry x="385" y="2941.5" width="20" height="63" as="geometry" />
        </mxCell>
        <mxCell id="CGsgj8HIXAb8GKsSNsu9-16" value="（byte、short、int、long）" style="text;align=center;verticalAlign=middle;rounded=0;fontFamily=OPPO Sans;fontSize=18;labelBackgroundColor=none;fillColor=none;strokeColor=none;fontColor=#FF0000;fontStyle=1;" vertex="1" parent="1">
          <mxGeometry x="483.5" y="2920" width="209" height="40" as="geometry" />
        </mxCell>
        <mxCell id="CGsgj8HIXAb8GKsSNsu9-17" value="（float、double）" style="text;align=center;verticalAlign=middle;rounded=0;fontFamily=OPPO Sans;fontSize=18;labelBackgroundColor=none;fillColor=none;strokeColor=none;fontStyle=1;fontColor=#FF0000;" vertex="1" parent="1">
          <mxGeometry x="483.5" y="2978" width="129" height="40" as="geometry" />
        </mxCell>
        <mxCell id="CGsgj8HIXAb8GKsSNsu9-18" value="（char）" style="text;align=center;verticalAlign=middle;rounded=0;fontFamily=OPPO Sans;fontSize=18;labelBackgroundColor=none;fillColor=none;strokeColor=none;fontStyle=1;fontColor=#FF0000;" vertex="1" parent="1">
          <mxGeometry x="390" y="3018" width="55" height="40" as="geometry" />
        </mxCell>
        <mxCell id="CGsgj8HIXAb8GKsSNsu9-19" value="（boolean）" style="text;align=center;verticalAlign=middle;rounded=0;fontFamily=OPPO Sans;fontSize=18;labelBackgroundColor=none;fillColor=none;strokeColor=none;fontStyle=1;fontColor=#FF0000;" vertex="1" parent="1">
          <mxGeometry x="390" y="3078" width="85" height="40" as="geometry" />
        </mxCell>
        <mxCell id="CGsgj8HIXAb8GKsSNsu9-20" value="（class）" style="text;align=center;verticalAlign=middle;rounded=0;fontFamily=OPPO Sans;fontSize=18;labelBackgroundColor=none;fillColor=none;strokeColor=none;fontStyle=1;fontColor=#FF0000;" vertex="1" parent="1">
          <mxGeometry x="348" y="3123" width="60" height="30" as="geometry" />
        </mxCell>
        <mxCell id="CGsgj8HIXAb8GKsSNsu9-21" value="（interface）" style="text;align=center;verticalAlign=middle;rounded=0;fontFamily=OPPO Sans;fontSize=18;labelBackgroundColor=none;fillColor=none;strokeColor=none;fontStyle=1;fontColor=#FF0000;" vertex="1" parent="1">
          <mxGeometry x="365" y="3185" width="90" height="30" as="geometry" />
        </mxCell>
        <mxCell id="CGsgj8HIXAb8GKsSNsu9-22" value="（[]）" style="text;align=center;verticalAlign=middle;rounded=0;fontFamily=OPPO Sans;fontSize=18;labelBackgroundColor=none;fillColor=none;strokeColor=none;fontStyle=1;fontColor=#FF0000;" vertex="1" parent="1">
          <mxGeometry x="365" y="3245" width="30" height="30" as="geometry" />
        </mxCell>
      </root>
    </mxGraphModel>
  </diagram>
  <diagram id="7RIYyVkhNp88UrI1-fRq" name="typeConversion">
    <mxGraphModel dx="1050" dy="669" grid="1" gridSize="10" guides="1" tooltips="1" connect="1" arrows="1" fold="1" page="1" pageScale="1" pageWidth="291" pageHeight="413" math="0" shadow="0">
      <root>
        <mxCell id="0" />
        <mxCell id="1" parent="0" />
        <mxCell id="ZDd88iARvmeaqoYQvGkx-1" style="edgeStyle=orthogonalEdgeStyle;rounded=0;orthogonalLoop=1;jettySize=auto;html=1;exitX=1;exitY=0.5;exitDx=0;exitDy=0;entryX=0;entryY=0.5;entryDx=0;entryDy=0;fontFamily=OPPO Sans;fontSize=18;fontColor=default;sketch=1;curveFitting=1;jiggle=0;" edge="1" parent="1" source="ZDd88iARvmeaqoYQvGkx-2" target="ZDd88iARvmeaqoYQvGkx-4">
          <mxGeometry relative="1" as="geometry" />
        </mxCell>
        <mxCell id="ZDd88iARvmeaqoYQvGkx-2" value="byte" style="rounded=0;fontFamily=OPPO Sans;fontSize=18;sketch=1;curveFitting=1;jiggle=1;fillColor=#dae8fc;strokeColor=#6c8ebf;" vertex="1" parent="1">
          <mxGeometry x="129" y="187" width="80" height="40" as="geometry" />
        </mxCell>
        <mxCell id="ZDd88iARvmeaqoYQvGkx-3" style="edgeStyle=orthogonalEdgeStyle;rounded=0;orthogonalLoop=1;jettySize=auto;html=1;exitX=1;exitY=0.5;exitDx=0;exitDy=0;entryX=0;entryY=0.5;entryDx=0;entryDy=0;fontFamily=OPPO Sans;fontSize=18;fontColor=default;sketch=1;curveFitting=1;jiggle=0;" edge="1" parent="1" source="ZDd88iARvmeaqoYQvGkx-4" target="ZDd88iARvmeaqoYQvGkx-8">
          <mxGeometry relative="1" as="geometry" />
        </mxCell>
        <mxCell id="ZDd88iARvmeaqoYQvGkx-4" value="short" style="rounded=0;fontFamily=OPPO Sans;fontSize=18;sketch=1;curveFitting=1;jiggle=1;fillColor=#dae8fc;strokeColor=#6c8ebf;" vertex="1" parent="1">
          <mxGeometry x="289" y="187" width="80" height="40" as="geometry" />
        </mxCell>
        <mxCell id="ZDd88iARvmeaqoYQvGkx-5" style="edgeStyle=orthogonalEdgeStyle;rounded=0;orthogonalLoop=1;jettySize=auto;html=1;exitX=1;exitY=0.5;exitDx=0;exitDy=0;entryX=0;entryY=0.5;entryDx=0;entryDy=0;fontFamily=OPPO Sans;fontSize=18;fontColor=default;sketch=1;curveFitting=1;jiggle=0;" edge="1" parent="1" source="ZDd88iARvmeaqoYQvGkx-8" target="ZDd88iARvmeaqoYQvGkx-11">
          <mxGeometry relative="1" as="geometry" />
        </mxCell>
        <mxCell id="ZDd88iARvmeaqoYQvGkx-6" style="edgeStyle=orthogonalEdgeStyle;rounded=0;orthogonalLoop=1;jettySize=auto;html=1;exitX=0.5;exitY=1;exitDx=0;exitDy=0;entryX=0.5;entryY=0;entryDx=0;entryDy=0;fontFamily=OPPO Sans;fontSize=18;fontColor=default;dashed=1;sketch=1;curveFitting=1;jiggle=0;" edge="1" parent="1" source="ZDd88iARvmeaqoYQvGkx-8" target="ZDd88iARvmeaqoYQvGkx-13">
          <mxGeometry relative="1" as="geometry" />
        </mxCell>
        <mxCell id="ZDd88iARvmeaqoYQvGkx-7" style="rounded=0;orthogonalLoop=1;jettySize=auto;html=1;exitX=1;exitY=1;exitDx=0;exitDy=0;entryX=0;entryY=0;entryDx=0;entryDy=0;fontFamily=OPPO Sans;fontSize=18;fontColor=default;sketch=1;curveFitting=1;jiggle=0;" edge="1" parent="1" source="ZDd88iARvmeaqoYQvGkx-8" target="ZDd88iARvmeaqoYQvGkx-14">
          <mxGeometry relative="1" as="geometry" />
        </mxCell>
        <mxCell id="ZDd88iARvmeaqoYQvGkx-8" value="int" style="rounded=0;fontFamily=OPPO Sans;fontSize=18;sketch=1;curveFitting=1;jiggle=1;fillColor=#dae8fc;strokeColor=#6c8ebf;" vertex="1" parent="1">
          <mxGeometry x="449" y="187" width="80" height="40" as="geometry" />
        </mxCell>
        <mxCell id="ZDd88iARvmeaqoYQvGkx-9" style="edgeStyle=orthogonalEdgeStyle;rounded=0;orthogonalLoop=1;jettySize=auto;html=1;exitX=0.5;exitY=1;exitDx=0;exitDy=0;entryX=0.5;entryY=0;entryDx=0;entryDy=0;fontFamily=OPPO Sans;fontSize=18;fontColor=default;dashed=1;sketch=1;curveFitting=1;jiggle=0;" edge="1" parent="1" source="ZDd88iARvmeaqoYQvGkx-11" target="ZDd88iARvmeaqoYQvGkx-14">
          <mxGeometry relative="1" as="geometry" />
        </mxCell>
        <mxCell id="ZDd88iARvmeaqoYQvGkx-10" style="rounded=0;orthogonalLoop=1;jettySize=auto;html=1;exitX=0;exitY=1;exitDx=0;exitDy=0;entryX=1;entryY=0;entryDx=0;entryDy=0;fontFamily=OPPO Sans;fontSize=18;fontColor=default;dashed=1;sketch=1;curveFitting=1;jiggle=0;" edge="1" parent="1" source="ZDd88iARvmeaqoYQvGkx-11" target="ZDd88iARvmeaqoYQvGkx-13">
          <mxGeometry relative="1" as="geometry" />
        </mxCell>
        <mxCell id="ZDd88iARvmeaqoYQvGkx-11" value="long" style="rounded=0;fontFamily=OPPO Sans;fontSize=18;sketch=1;curveFitting=1;jiggle=1;fillColor=#dae8fc;strokeColor=#6c8ebf;" vertex="1" parent="1">
          <mxGeometry x="609" y="187" width="80" height="40" as="geometry" />
        </mxCell>
        <mxCell id="ZDd88iARvmeaqoYQvGkx-12" style="edgeStyle=orthogonalEdgeStyle;rounded=0;orthogonalLoop=1;jettySize=auto;html=1;exitX=1;exitY=0.5;exitDx=0;exitDy=0;entryX=0;entryY=0.5;entryDx=0;entryDy=0;fontFamily=OPPO Sans;fontSize=18;fontColor=default;sketch=1;curveFitting=1;jiggle=0;" edge="1" parent="1" source="ZDd88iARvmeaqoYQvGkx-13" target="ZDd88iARvmeaqoYQvGkx-14">
          <mxGeometry relative="1" as="geometry" />
        </mxCell>
        <mxCell id="ZDd88iARvmeaqoYQvGkx-13" value="float" style="rounded=0;fontFamily=OPPO Sans;fontSize=18;sketch=1;curveFitting=1;jiggle=1;fillColor=#dae8fc;strokeColor=#6c8ebf;" vertex="1" parent="1">
          <mxGeometry x="449" y="307" width="80" height="40" as="geometry" />
        </mxCell>
        <mxCell id="ZDd88iARvmeaqoYQvGkx-14" value="double" style="rounded=0;fontFamily=OPPO Sans;fontSize=18;sketch=1;curveFitting=1;jiggle=1;fillColor=#dae8fc;strokeColor=#6c8ebf;" vertex="1" parent="1">
          <mxGeometry x="609" y="307" width="80" height="40" as="geometry" />
        </mxCell>
        <mxCell id="ZDd88iARvmeaqoYQvGkx-15" style="edgeStyle=orthogonalEdgeStyle;rounded=0;orthogonalLoop=1;jettySize=auto;html=1;exitX=0.5;exitY=1;exitDx=0;exitDy=0;entryX=0.5;entryY=0;entryDx=0;entryDy=0;fontFamily=OPPO Sans;fontSize=18;fontColor=default;sketch=1;curveFitting=1;jiggle=0;" edge="1" parent="1" source="ZDd88iARvmeaqoYQvGkx-16" target="ZDd88iARvmeaqoYQvGkx-8">
          <mxGeometry relative="1" as="geometry" />
        </mxCell>
        <mxCell id="ZDd88iARvmeaqoYQvGkx-16" value="char" style="rounded=0;fontFamily=OPPO Sans;fontSize=18;sketch=1;curveFitting=1;jiggle=1;fillColor=#dae8fc;strokeColor=#6c8ebf;" vertex="1" parent="1">
          <mxGeometry x="449" y="67" width="80" height="40" as="geometry" />
        </mxCell>
        <mxCell id="ZDd88iARvmeaqoYQvGkx-17" value="实线表示无数据丢失的自动类型转换；虚线表示在转换时可能会有精度损失。" style="shape=note;whiteSpace=wrap;html=1;backgroundOutline=1;darkOpacity=0.05;fillColor=#dae8fc;strokeColor=#6c8ebf;fillStyle=solid;direction=west;gradientDirection=north;shadow=1;size=15;pointerEvents=1;rounded=0;align=center;verticalAlign=middle;fontFamily=OPPO Sans;fontSize=18;sketch=1;curveFitting=1;jiggle=1;" vertex="1" parent="1">
          <mxGeometry x="70" y="257" width="310" height="80" as="geometry" />
        </mxCell>
      </root>
    </mxGraphModel>
  </diagram>
  <diagram id="jlxAT8fAJopnaJzjIH9A" name="priority">
    <mxGraphModel dx="1050" dy="256" grid="1" gridSize="10" guides="1" tooltips="1" connect="1" arrows="1" fold="1" page="1" pageScale="1" pageWidth="291" pageHeight="413" math="0" shadow="0">
      <root>
        <mxCell id="0" />
        <mxCell id="1" parent="0" />
        <mxCell id="nqMz8pj0lUQ_KVnc3Pqh-1" value="Assets" style="childLayout=tableLayout;recursiveResize=0;strokeColor=#98bf21;fillColor=#A7C942;shadow=1;rounded=0;align=center;verticalAlign=middle;fontFamily=OPPO Sans;fontSize=18;fontColor=default;" vertex="1" parent="1">
          <mxGeometry x="40" y="470" width="800" height="475" as="geometry" />
        </mxCell>
        <mxCell id="nqMz8pj0lUQ_KVnc3Pqh-2" value="" style="shape=tableRow;horizontal=0;startSize=0;swimlaneHead=0;swimlaneBody=0;top=0;left=0;bottom=0;right=0;dropTarget=0;collapsible=0;recursiveResize=0;expand=0;fontStyle=0;strokeColor=inherit;fillColor=#ffffff;rounded=0;align=center;verticalAlign=middle;fontFamily=OPPO Sans;fontSize=18;fontColor=default;" vertex="1" parent="nqMz8pj0lUQ_KVnc3Pqh-1">
          <mxGeometry width="800" height="33" as="geometry" />
        </mxCell>
        <mxCell id="nqMz8pj0lUQ_KVnc3Pqh-3" value="优先级" style="connectable=0;recursiveResize=0;strokeColor=inherit;fillColor=#A7C942;align=center;fontStyle=1;fontColor=#FFFFFF;rounded=0;verticalAlign=middle;fontFamily=OPPO Sans;fontSize=18;" vertex="1" parent="nqMz8pj0lUQ_KVnc3Pqh-2">
          <mxGeometry width="93" height="33" as="geometry">
            <mxRectangle width="93" height="33" as="alternateBounds" />
          </mxGeometry>
        </mxCell>
        <mxCell id="nqMz8pj0lUQ_KVnc3Pqh-4" value="运算符" style="connectable=0;recursiveResize=0;strokeColor=inherit;fillColor=#A7C942;align=center;fontStyle=1;fontColor=#FFFFFF;rounded=0;verticalAlign=middle;fontFamily=OPPO Sans;fontSize=18;" vertex="1" parent="nqMz8pj0lUQ_KVnc3Pqh-2">
          <mxGeometry x="93" width="547" height="33" as="geometry">
            <mxRectangle width="547" height="33" as="alternateBounds" />
          </mxGeometry>
        </mxCell>
        <mxCell id="nqMz8pj0lUQ_KVnc3Pqh-5" value="结合性" style="connectable=0;recursiveResize=0;strokeColor=inherit;fillColor=#A7C942;align=center;fontStyle=1;fontColor=#FFFFFF;rounded=0;verticalAlign=middle;fontFamily=OPPO Sans;fontSize=18;" vertex="1" parent="nqMz8pj0lUQ_KVnc3Pqh-2">
          <mxGeometry x="640" width="160" height="33" as="geometry">
            <mxRectangle width="160" height="33" as="alternateBounds" />
          </mxGeometry>
        </mxCell>
        <mxCell id="nqMz8pj0lUQ_KVnc3Pqh-6" value="" style="shape=tableRow;horizontal=0;startSize=0;swimlaneHead=0;swimlaneBody=0;top=0;left=0;bottom=0;right=0;dropTarget=0;collapsible=0;recursiveResize=0;expand=0;fontStyle=0;strokeColor=inherit;fillColor=#ffffff;rounded=0;align=center;verticalAlign=middle;fontFamily=OPPO Sans;fontSize=18;fontColor=default;" vertex="1" parent="nqMz8pj0lUQ_KVnc3Pqh-1">
          <mxGeometry y="33" width="800" height="32" as="geometry" />
        </mxCell>
        <mxCell id="nqMz8pj0lUQ_KVnc3Pqh-7" value="1" style="connectable=0;recursiveResize=0;strokeColor=inherit;fillColor=inherit;align=center;rounded=0;verticalAlign=middle;fontFamily=OPPO Sans;fontSize=18;fontColor=default;" vertex="1" parent="nqMz8pj0lUQ_KVnc3Pqh-6">
          <mxGeometry width="93" height="32" as="geometry">
            <mxRectangle width="93" height="32" as="alternateBounds" />
          </mxGeometry>
        </mxCell>
        <mxCell id="nqMz8pj0lUQ_KVnc3Pqh-8" value="()、[]、()" style="connectable=0;recursiveResize=0;strokeColor=inherit;fillColor=inherit;align=center;rounded=0;verticalAlign=middle;fontFamily=OPPO Sans;fontSize=18;fontColor=default;" vertex="1" parent="nqMz8pj0lUQ_KVnc3Pqh-6">
          <mxGeometry x="93" width="547" height="32" as="geometry">
            <mxRectangle width="547" height="32" as="alternateBounds" />
          </mxGeometry>
        </mxCell>
        <mxCell id="nqMz8pj0lUQ_KVnc3Pqh-9" value="自左向右" style="connectable=0;recursiveResize=0;strokeColor=inherit;fillColor=inherit;align=center;rounded=0;verticalAlign=middle;fontFamily=OPPO Sans;fontSize=18;fontColor=default;" vertex="1" parent="nqMz8pj0lUQ_KVnc3Pqh-6">
          <mxGeometry x="640" width="160" height="32" as="geometry">
            <mxRectangle width="160" height="32" as="alternateBounds" />
          </mxGeometry>
        </mxCell>
        <mxCell id="nqMz8pj0lUQ_KVnc3Pqh-10" value="" style="shape=tableRow;horizontal=0;startSize=0;swimlaneHead=0;swimlaneBody=0;top=0;left=0;bottom=0;right=0;dropTarget=0;collapsible=0;recursiveResize=0;expand=0;fontStyle=1;strokeColor=inherit;fillColor=#EAF2D3;rounded=0;align=center;verticalAlign=middle;fontFamily=OPPO Sans;fontSize=18;fontColor=default;" vertex="1" parent="nqMz8pj0lUQ_KVnc3Pqh-1">
          <mxGeometry y="65" width="800" height="31" as="geometry" />
        </mxCell>
        <mxCell id="nqMz8pj0lUQ_KVnc3Pqh-11" value="2" style="connectable=0;recursiveResize=0;strokeColor=inherit;fillColor=inherit;rounded=0;align=center;verticalAlign=middle;fontFamily=OPPO Sans;fontSize=18;fontColor=default;" vertex="1" parent="nqMz8pj0lUQ_KVnc3Pqh-10">
          <mxGeometry width="93" height="31" as="geometry">
            <mxRectangle width="93" height="31" as="alternateBounds" />
          </mxGeometry>
        </mxCell>
        <UserObject label="!、+、-、~、++、--" tooltip="! 逻辑非：用来反转操作数的逻辑状态，如果条件为 true，则逻辑非将得到 false（逻辑运算符）。&#xa;+ 正号:数字前面取正号表示一个正数。&#xa;- 负号:数字前面取负号表示一个负数。&#xa;~ 取反：翻转操作数的二进制的每一位，即 0 变为 1，1 变为 0（位运算符）。&#xa;++ 自增运算&#xa;-- 自减运算" id="nqMz8pj0lUQ_KVnc3Pqh-12">
          <mxCell style="connectable=0;recursiveResize=0;strokeColor=inherit;fillColor=inherit;rounded=0;align=center;verticalAlign=middle;fontFamily=OPPO Sans;fontSize=18;fontColor=default;" vertex="1" parent="nqMz8pj0lUQ_KVnc3Pqh-10">
            <mxGeometry x="93" width="547" height="31" as="geometry">
              <mxRectangle width="547" height="31" as="alternateBounds" />
            </mxGeometry>
          </mxCell>
        </UserObject>
        <mxCell id="nqMz8pj0lUQ_KVnc3Pqh-13" value="自右向左" style="connectable=0;recursiveResize=0;strokeColor=inherit;fillColor=inherit;rounded=0;align=center;verticalAlign=middle;fontFamily=OPPO Sans;fontSize=18;fontColor=default;" vertex="1" parent="nqMz8pj0lUQ_KVnc3Pqh-10">
          <mxGeometry x="640" width="160" height="31" as="geometry">
            <mxRectangle width="160" height="31" as="alternateBounds" />
          </mxGeometry>
        </mxCell>
        <mxCell id="nqMz8pj0lUQ_KVnc3Pqh-14" value="" style="shape=tableRow;horizontal=0;startSize=0;swimlaneHead=0;swimlaneBody=0;top=0;left=0;bottom=0;right=0;dropTarget=0;collapsible=0;recursiveResize=0;expand=0;fontStyle=0;strokeColor=inherit;fillColor=#ffffff;rounded=0;align=center;verticalAlign=middle;fontFamily=OPPO Sans;fontSize=18;fontColor=default;" vertex="1" parent="nqMz8pj0lUQ_KVnc3Pqh-1">
          <mxGeometry y="96" width="800" height="32" as="geometry" />
        </mxCell>
        <mxCell id="nqMz8pj0lUQ_KVnc3Pqh-15" value="3" style="connectable=0;recursiveResize=0;strokeColor=inherit;fillColor=inherit;align=center;rounded=0;verticalAlign=middle;fontFamily=OPPO Sans;fontSize=18;fontColor=default;" vertex="1" parent="nqMz8pj0lUQ_KVnc3Pqh-14">
          <mxGeometry width="93" height="32" as="geometry">
            <mxRectangle width="93" height="32" as="alternateBounds" />
          </mxGeometry>
        </mxCell>
        <UserObject label="*、/、%" tooltip="* 乘法运算（算术运算符）&#xa;/ 除法运算。注意：与数学中一样，0 不能作为除数（算术运算符）&#xa;% 取余运算，获取除法运算之后的余数（算术运算符）" id="nqMz8pj0lUQ_KVnc3Pqh-16">
          <mxCell style="connectable=0;recursiveResize=0;strokeColor=inherit;fillColor=inherit;align=center;rounded=0;verticalAlign=middle;fontFamily=OPPO Sans;fontSize=18;fontColor=default;" vertex="1" parent="nqMz8pj0lUQ_KVnc3Pqh-14">
            <mxGeometry x="93" width="547" height="32" as="geometry">
              <mxRectangle width="547" height="32" as="alternateBounds" />
            </mxGeometry>
          </mxCell>
        </UserObject>
        <mxCell id="nqMz8pj0lUQ_KVnc3Pqh-17" value="自左向右" style="connectable=0;recursiveResize=0;strokeColor=inherit;fillColor=inherit;align=center;rounded=0;verticalAlign=middle;fontFamily=OPPO Sans;fontSize=18;fontColor=default;" vertex="1" parent="nqMz8pj0lUQ_KVnc3Pqh-14">
          <mxGeometry x="640" width="160" height="32" as="geometry">
            <mxRectangle width="160" height="32" as="alternateBounds" />
          </mxGeometry>
        </mxCell>
        <mxCell id="nqMz8pj0lUQ_KVnc3Pqh-18" value="" style="shape=tableRow;horizontal=0;startSize=0;swimlaneHead=0;swimlaneBody=0;top=0;left=0;bottom=0;right=0;dropTarget=0;collapsible=0;recursiveResize=0;expand=0;fontStyle=1;strokeColor=inherit;fillColor=#EAF2D3;rounded=0;align=center;verticalAlign=middle;fontFamily=OPPO Sans;fontSize=18;fontColor=default;" vertex="1" parent="nqMz8pj0lUQ_KVnc3Pqh-1">
          <mxGeometry y="128" width="800" height="31" as="geometry" />
        </mxCell>
        <mxCell id="nqMz8pj0lUQ_KVnc3Pqh-19" value="4" style="connectable=0;recursiveResize=0;strokeColor=inherit;fillColor=inherit;rounded=0;align=center;verticalAlign=middle;fontFamily=OPPO Sans;fontSize=18;fontColor=default;" vertex="1" parent="nqMz8pj0lUQ_KVnc3Pqh-18">
          <mxGeometry width="93" height="31" as="geometry">
            <mxRectangle width="93" height="31" as="alternateBounds" />
          </mxGeometry>
        </mxCell>
        <UserObject label="+、-" tooltip="+ 加法运算&#xa;- 减法运算" id="nqMz8pj0lUQ_KVnc3Pqh-20">
          <mxCell style="connectable=0;recursiveResize=0;strokeColor=inherit;fillColor=inherit;rounded=0;align=center;verticalAlign=middle;fontFamily=OPPO Sans;fontSize=18;fontColor=default;" vertex="1" parent="nqMz8pj0lUQ_KVnc3Pqh-18">
            <mxGeometry x="93" width="547" height="31" as="geometry">
              <mxRectangle width="547" height="31" as="alternateBounds" />
            </mxGeometry>
          </mxCell>
        </UserObject>
        <mxCell id="nqMz8pj0lUQ_KVnc3Pqh-21" value="自左向右" style="connectable=0;recursiveResize=0;strokeColor=inherit;fillColor=inherit;rounded=0;align=center;verticalAlign=middle;fontFamily=OPPO Sans;fontSize=18;fontColor=default;" vertex="1" parent="nqMz8pj0lUQ_KVnc3Pqh-18">
          <mxGeometry x="640" width="160" height="31" as="geometry">
            <mxRectangle width="160" height="31" as="alternateBounds" />
          </mxGeometry>
        </mxCell>
        <mxCell id="nqMz8pj0lUQ_KVnc3Pqh-22" value="" style="shape=tableRow;horizontal=0;startSize=0;swimlaneHead=0;swimlaneBody=0;top=0;left=0;bottom=0;right=0;dropTarget=0;collapsible=0;recursiveResize=0;expand=0;fontStyle=0;strokeColor=inherit;fillColor=#ffffff;rounded=0;align=center;verticalAlign=middle;fontFamily=OPPO Sans;fontSize=18;fontColor=default;" vertex="1" parent="nqMz8pj0lUQ_KVnc3Pqh-1">
          <mxGeometry y="159" width="800" height="32" as="geometry" />
        </mxCell>
        <mxCell id="nqMz8pj0lUQ_KVnc3Pqh-23" value="5" style="connectable=0;recursiveResize=0;strokeColor=inherit;fillColor=inherit;align=center;rounded=0;verticalAlign=middle;fontFamily=OPPO Sans;fontSize=18;fontColor=default;" vertex="1" parent="nqMz8pj0lUQ_KVnc3Pqh-22">
          <mxGeometry width="93" height="32" as="geometry">
            <mxRectangle width="93" height="32" as="alternateBounds" />
          </mxGeometry>
        </mxCell>
        <UserObject label="&lt;&lt;、&gt;&gt;、&gt;&gt;&gt;" tooltip="&lt;&lt; 按位左移运算符：左操作数按位左移右操作数指定的位数（位运算符）。&#xa;&gt;&gt; 按位右移运算符：左操作数按位右移右操作数指定的位数。如果最高位是 0，左边补齐 0；如果最高位是 1，左边补齐 1（位运算符）。&#xa;&gt;&gt;&gt; 按位右移补零操作符：左操作数的值按右操作数指定的位数右移，移动得到的空位以 0 填充。无论最高位是 0 还是 1，左边补齐 0（位运算符）。" id="nqMz8pj0lUQ_KVnc3Pqh-24">
          <mxCell style="connectable=0;recursiveResize=0;strokeColor=inherit;fillColor=inherit;align=center;rounded=0;verticalAlign=middle;fontFamily=OPPO Sans;fontSize=18;fontColor=default;" vertex="1" parent="nqMz8pj0lUQ_KVnc3Pqh-22">
            <mxGeometry x="93" width="547" height="32" as="geometry">
              <mxRectangle width="547" height="32" as="alternateBounds" />
            </mxGeometry>
          </mxCell>
        </UserObject>
        <mxCell id="nqMz8pj0lUQ_KVnc3Pqh-25" value="自左向右" style="connectable=0;recursiveResize=0;strokeColor=inherit;fillColor=inherit;align=center;rounded=0;verticalAlign=middle;fontFamily=OPPO Sans;fontSize=18;fontColor=default;" vertex="1" parent="nqMz8pj0lUQ_KVnc3Pqh-22">
          <mxGeometry x="640" width="160" height="32" as="geometry">
            <mxRectangle width="160" height="32" as="alternateBounds" />
          </mxGeometry>
        </mxCell>
        <mxCell id="nqMz8pj0lUQ_KVnc3Pqh-26" value="" style="shape=tableRow;horizontal=0;startSize=0;swimlaneHead=0;swimlaneBody=0;top=0;left=0;bottom=0;right=0;dropTarget=0;collapsible=0;recursiveResize=0;expand=0;fontStyle=1;strokeColor=inherit;fillColor=#EAF2D3;rounded=0;align=center;verticalAlign=middle;fontFamily=OPPO Sans;fontSize=18;fontColor=default;" vertex="1" parent="nqMz8pj0lUQ_KVnc3Pqh-1">
          <mxGeometry y="191" width="800" height="31" as="geometry" />
        </mxCell>
        <mxCell id="nqMz8pj0lUQ_KVnc3Pqh-27" value="6" style="connectable=0;recursiveResize=0;strokeColor=inherit;fillColor=inherit;rounded=0;align=center;verticalAlign=middle;fontFamily=OPPO Sans;fontSize=18;fontColor=default;" vertex="1" parent="nqMz8pj0lUQ_KVnc3Pqh-26">
          <mxGeometry width="93" height="31" as="geometry">
            <mxRectangle width="93" height="31" as="alternateBounds" />
          </mxGeometry>
        </mxCell>
        <UserObject label="&gt;、&gt;=、&lt;、&lt;=、instanceof" tooltip="&gt; 大于：检查符号左边的值是否大于右边的值（关系运算符）。&#xa;&gt;= 大于等于：检查符号左边的值是否大于或等于右边的值（关系运算符）。&#xa;&lt; 小于：检查符号左边的值是否小于右边的值（关系运算符）。&#xa;&lt;= 小于等于：检查符号左边的值是否小于或等于右边的值（关系运算符）。&#xa;instanceof 关键字：用在 if 语句中，一般用来判断一个对象是否是此类型的对象，返回值为 boolean 类型。" id="nqMz8pj0lUQ_KVnc3Pqh-28">
          <mxCell style="connectable=0;recursiveResize=0;strokeColor=inherit;fillColor=inherit;rounded=0;align=center;verticalAlign=middle;fontFamily=OPPO Sans;fontSize=18;fontColor=default;" vertex="1" parent="nqMz8pj0lUQ_KVnc3Pqh-26">
            <mxGeometry x="93" width="547" height="31" as="geometry">
              <mxRectangle width="547" height="31" as="alternateBounds" />
            </mxGeometry>
          </mxCell>
        </UserObject>
        <mxCell id="nqMz8pj0lUQ_KVnc3Pqh-29" value="自左向右" style="connectable=0;recursiveResize=0;strokeColor=inherit;fillColor=inherit;rounded=0;align=center;verticalAlign=middle;fontFamily=OPPO Sans;fontSize=18;fontColor=default;" vertex="1" parent="nqMz8pj0lUQ_KVnc3Pqh-26">
          <mxGeometry x="640" width="160" height="31" as="geometry">
            <mxRectangle width="160" height="31" as="alternateBounds" />
          </mxGeometry>
        </mxCell>
        <mxCell id="nqMz8pj0lUQ_KVnc3Pqh-30" value="" style="shape=tableRow;horizontal=0;startSize=0;swimlaneHead=0;swimlaneBody=0;top=0;left=0;bottom=0;right=0;dropTarget=0;collapsible=0;recursiveResize=0;expand=0;fontStyle=0;strokeColor=inherit;fillColor=#ffffff;rounded=0;align=center;verticalAlign=middle;fontFamily=OPPO Sans;fontSize=18;fontColor=default;" vertex="1" parent="nqMz8pj0lUQ_KVnc3Pqh-1">
          <mxGeometry y="222" width="800" height="32" as="geometry" />
        </mxCell>
        <mxCell id="nqMz8pj0lUQ_KVnc3Pqh-31" value="7" style="connectable=0;recursiveResize=0;strokeColor=inherit;fillColor=inherit;align=center;rounded=0;verticalAlign=middle;fontFamily=OPPO Sans;fontSize=18;fontColor=default;" vertex="1" parent="nqMz8pj0lUQ_KVnc3Pqh-30">
          <mxGeometry width="93" height="32" as="geometry">
            <mxRectangle width="93" height="32" as="alternateBounds" />
          </mxGeometry>
        </mxCell>
        <UserObject label="==、!=" tooltip="== 等于：检查符号两侧的值是否相等（关系运算符）。&#xa;!= 不等于：检查符号两侧的值是否不相等（关系运算符）。" id="nqMz8pj0lUQ_KVnc3Pqh-32">
          <mxCell style="connectable=0;recursiveResize=0;strokeColor=inherit;fillColor=inherit;align=center;rounded=0;verticalAlign=middle;fontFamily=OPPO Sans;fontSize=18;fontColor=default;" vertex="1" parent="nqMz8pj0lUQ_KVnc3Pqh-30">
            <mxGeometry x="93" width="547" height="32" as="geometry">
              <mxRectangle width="547" height="32" as="alternateBounds" />
            </mxGeometry>
          </mxCell>
        </UserObject>
        <mxCell id="nqMz8pj0lUQ_KVnc3Pqh-33" value="自左向右" style="connectable=0;recursiveResize=0;strokeColor=inherit;fillColor=inherit;align=center;rounded=0;verticalAlign=middle;fontFamily=OPPO Sans;fontSize=18;fontColor=default;" vertex="1" parent="nqMz8pj0lUQ_KVnc3Pqh-30">
          <mxGeometry x="640" width="160" height="32" as="geometry">
            <mxRectangle width="160" height="32" as="alternateBounds" />
          </mxGeometry>
        </mxCell>
        <mxCell id="nqMz8pj0lUQ_KVnc3Pqh-34" value="" style="shape=tableRow;horizontal=0;startSize=0;swimlaneHead=0;swimlaneBody=0;top=0;left=0;bottom=0;right=0;dropTarget=0;collapsible=0;recursiveResize=0;expand=0;fontStyle=1;strokeColor=inherit;fillColor=#EAF2D3;rounded=0;align=center;verticalAlign=middle;fontFamily=OPPO Sans;fontSize=18;fontColor=default;" vertex="1" parent="nqMz8pj0lUQ_KVnc3Pqh-1">
          <mxGeometry y="254" width="800" height="31" as="geometry" />
        </mxCell>
        <mxCell id="nqMz8pj0lUQ_KVnc3Pqh-35" value="8" style="connectable=0;recursiveResize=0;strokeColor=inherit;fillColor=inherit;rounded=0;align=center;verticalAlign=middle;fontFamily=OPPO Sans;fontSize=18;fontColor=default;" vertex="1" parent="nqMz8pj0lUQ_KVnc3Pqh-34">
          <mxGeometry width="93" height="31" as="geometry">
            <mxRectangle width="93" height="31" as="alternateBounds" />
          </mxGeometry>
        </mxCell>
        <UserObject label="&amp;" tooltip="1. 按位与：运算符两边的操作数的二进制的对应位的值都为 1，则结果为 1，否则为 0（位运算符）。&#xa;2. 与逻辑与相同，但是不会短路（逻辑运算符）、" id="nqMz8pj0lUQ_KVnc3Pqh-36">
          <mxCell style="connectable=0;recursiveResize=0;strokeColor=inherit;fillColor=inherit;rounded=0;align=center;verticalAlign=middle;fontFamily=OPPO Sans;fontSize=18;fontColor=default;" vertex="1" parent="nqMz8pj0lUQ_KVnc3Pqh-34">
            <mxGeometry x="93" width="547" height="31" as="geometry">
              <mxRectangle width="547" height="31" as="alternateBounds" />
            </mxGeometry>
          </mxCell>
        </UserObject>
        <mxCell id="nqMz8pj0lUQ_KVnc3Pqh-37" value="自左向右" style="connectable=0;recursiveResize=0;strokeColor=inherit;fillColor=inherit;rounded=0;align=center;verticalAlign=middle;fontFamily=OPPO Sans;fontSize=18;fontColor=default;" vertex="1" parent="nqMz8pj0lUQ_KVnc3Pqh-34">
          <mxGeometry x="640" width="160" height="31" as="geometry">
            <mxRectangle width="160" height="31" as="alternateBounds" />
          </mxGeometry>
        </mxCell>
        <mxCell id="nqMz8pj0lUQ_KVnc3Pqh-38" value="" style="shape=tableRow;horizontal=0;startSize=0;swimlaneHead=0;swimlaneBody=0;top=0;left=0;bottom=0;right=0;dropTarget=0;collapsible=0;recursiveResize=0;expand=0;fontStyle=0;strokeColor=inherit;fillColor=#ffffff;rounded=0;align=center;verticalAlign=middle;fontFamily=OPPO Sans;fontSize=18;fontColor=default;" vertex="1" parent="nqMz8pj0lUQ_KVnc3Pqh-1">
          <mxGeometry y="285" width="800" height="32" as="geometry" />
        </mxCell>
        <mxCell id="nqMz8pj0lUQ_KVnc3Pqh-39" value="9" style="connectable=0;recursiveResize=0;strokeColor=inherit;fillColor=inherit;align=center;rounded=0;verticalAlign=middle;fontFamily=OPPO Sans;fontSize=18;fontColor=default;" vertex="1" parent="nqMz8pj0lUQ_KVnc3Pqh-38">
          <mxGeometry width="93" height="32" as="geometry">
            <mxRectangle width="93" height="32" as="alternateBounds" />
          </mxGeometry>
        </mxCell>
        <UserObject label="^" tooltip="1. 按位异或：运算符两边的操作数的二进制的对应位的值相同，则结果为 0，否则为 1（位运算符）。&#xa;2. 逻辑异或，只有两个操作数不同时才返回 true，两个操作数相同时返回 false（逻辑运算符）。" id="nqMz8pj0lUQ_KVnc3Pqh-40">
          <mxCell style="connectable=0;recursiveResize=0;strokeColor=inherit;fillColor=inherit;align=center;rounded=0;verticalAlign=middle;fontFamily=OPPO Sans;fontSize=18;fontColor=default;" vertex="1" parent="nqMz8pj0lUQ_KVnc3Pqh-38">
            <mxGeometry x="93" width="547" height="32" as="geometry">
              <mxRectangle width="547" height="32" as="alternateBounds" />
            </mxGeometry>
          </mxCell>
        </UserObject>
        <mxCell id="nqMz8pj0lUQ_KVnc3Pqh-41" value="自左向右" style="connectable=0;recursiveResize=0;strokeColor=inherit;fillColor=inherit;align=center;rounded=0;verticalAlign=middle;fontFamily=OPPO Sans;fontSize=18;fontColor=default;" vertex="1" parent="nqMz8pj0lUQ_KVnc3Pqh-38">
          <mxGeometry x="640" width="160" height="32" as="geometry">
            <mxRectangle width="160" height="32" as="alternateBounds" />
          </mxGeometry>
        </mxCell>
        <mxCell id="nqMz8pj0lUQ_KVnc3Pqh-42" value="" style="shape=tableRow;horizontal=0;startSize=0;swimlaneHead=0;swimlaneBody=0;top=0;left=0;bottom=0;right=0;dropTarget=0;collapsible=0;recursiveResize=0;expand=0;fontStyle=1;strokeColor=inherit;fillColor=#EAF2D3;rounded=0;align=center;verticalAlign=middle;fontFamily=OPPO Sans;fontSize=18;fontColor=default;" vertex="1" parent="nqMz8pj0lUQ_KVnc3Pqh-1">
          <mxGeometry y="317" width="800" height="31" as="geometry" />
        </mxCell>
        <mxCell id="nqMz8pj0lUQ_KVnc3Pqh-43" value="10" style="connectable=0;recursiveResize=0;strokeColor=inherit;fillColor=inherit;rounded=0;align=center;verticalAlign=middle;fontFamily=OPPO Sans;fontSize=18;fontColor=default;" vertex="1" parent="nqMz8pj0lUQ_KVnc3Pqh-42">
          <mxGeometry width="93" height="31" as="geometry">
            <mxRectangle width="93" height="31" as="alternateBounds" />
          </mxGeometry>
        </mxCell>
        <UserObject label="|" tooltip="1. 按位或：运算符两边的操作数的二进制的对应位的值都为 0，则结果为 0，否则为 1（位运算符）。&#xa;2. 与逻辑或相同，但是不会短路（逻辑运算符）。" id="nqMz8pj0lUQ_KVnc3Pqh-44">
          <mxCell style="connectable=0;recursiveResize=0;strokeColor=inherit;fillColor=inherit;rounded=0;align=center;verticalAlign=middle;fontFamily=OPPO Sans;fontSize=18;fontColor=default;fontStyle=0;html=1;" vertex="1" parent="nqMz8pj0lUQ_KVnc3Pqh-42">
            <mxGeometry x="93" width="547" height="31" as="geometry">
              <mxRectangle width="547" height="31" as="alternateBounds" />
            </mxGeometry>
          </mxCell>
        </UserObject>
        <mxCell id="nqMz8pj0lUQ_KVnc3Pqh-45" value="自左向右" style="connectable=0;recursiveResize=0;strokeColor=inherit;fillColor=inherit;rounded=0;align=center;verticalAlign=middle;fontFamily=OPPO Sans;fontSize=18;fontColor=default;" vertex="1" parent="nqMz8pj0lUQ_KVnc3Pqh-42">
          <mxGeometry x="640" width="160" height="31" as="geometry">
            <mxRectangle width="160" height="31" as="alternateBounds" />
          </mxGeometry>
        </mxCell>
        <mxCell id="nqMz8pj0lUQ_KVnc3Pqh-46" value="" style="shape=tableRow;horizontal=0;startSize=0;swimlaneHead=0;swimlaneBody=0;top=0;left=0;bottom=0;right=0;dropTarget=0;collapsible=0;recursiveResize=0;expand=0;fontStyle=0;strokeColor=inherit;fillColor=#ffffff;rounded=0;align=center;verticalAlign=middle;fontFamily=OPPO Sans;fontSize=18;fontColor=default;" vertex="1" parent="nqMz8pj0lUQ_KVnc3Pqh-1">
          <mxGeometry y="348" width="800" height="33" as="geometry" />
        </mxCell>
        <mxCell id="nqMz8pj0lUQ_KVnc3Pqh-47" value="11" style="connectable=0;recursiveResize=0;strokeColor=inherit;fillColor=inherit;fontStyle=0;align=center;rounded=0;verticalAlign=middle;fontFamily=OPPO Sans;fontSize=18;fontColor=default;" vertex="1" parent="nqMz8pj0lUQ_KVnc3Pqh-46">
          <mxGeometry width="93" height="33" as="geometry">
            <mxRectangle width="93" height="33" as="alternateBounds" />
          </mxGeometry>
        </mxCell>
        <UserObject label="&amp;&amp;" tooltip="逻辑与，当且仅当操作符两侧的操作数都为 true 时，条件才为 true（逻辑运算符）。" id="nqMz8pj0lUQ_KVnc3Pqh-48">
          <mxCell style="connectable=0;recursiveResize=0;strokeColor=inherit;fillColor=inherit;fontStyle=0;align=center;rounded=0;verticalAlign=middle;fontFamily=OPPO Sans;fontSize=18;fontColor=default;" vertex="1" parent="nqMz8pj0lUQ_KVnc3Pqh-46">
            <mxGeometry x="93" width="547" height="33" as="geometry">
              <mxRectangle width="547" height="33" as="alternateBounds" />
            </mxGeometry>
          </mxCell>
        </UserObject>
        <mxCell id="nqMz8pj0lUQ_KVnc3Pqh-49" value="自左向右" style="connectable=0;recursiveResize=0;strokeColor=inherit;fillColor=inherit;fontStyle=0;align=center;rounded=0;verticalAlign=middle;fontFamily=OPPO Sans;fontSize=18;fontColor=default;" vertex="1" parent="nqMz8pj0lUQ_KVnc3Pqh-46">
          <mxGeometry x="640" width="160" height="33" as="geometry">
            <mxRectangle width="160" height="33" as="alternateBounds" />
          </mxGeometry>
        </mxCell>
        <mxCell id="nqMz8pj0lUQ_KVnc3Pqh-50" value="" style="shape=tableRow;horizontal=0;startSize=0;swimlaneHead=0;swimlaneBody=0;top=0;left=0;bottom=0;right=0;dropTarget=0;collapsible=0;recursiveResize=0;expand=0;fontStyle=1;strokeColor=inherit;fillColor=#EAF2D3;rounded=0;align=center;verticalAlign=middle;fontFamily=OPPO Sans;fontSize=18;fontColor=default;" vertex="1" parent="nqMz8pj0lUQ_KVnc3Pqh-1">
          <mxGeometry y="381" width="800" height="31" as="geometry" />
        </mxCell>
        <mxCell id="nqMz8pj0lUQ_KVnc3Pqh-51" value="12" style="connectable=0;recursiveResize=0;strokeColor=inherit;fillColor=inherit;rounded=0;align=center;verticalAlign=middle;fontFamily=OPPO Sans;fontSize=18;fontColor=default;" vertex="1" parent="nqMz8pj0lUQ_KVnc3Pqh-50">
          <mxGeometry width="93" height="31" as="geometry">
            <mxRectangle width="93" height="31" as="alternateBounds" />
          </mxGeometry>
        </mxCell>
        <UserObject label="||" tooltip="逻辑或，如果操作符两侧任意一侧为 true 时，条件为 true（逻辑运算符）。" id="nqMz8pj0lUQ_KVnc3Pqh-52">
          <mxCell style="connectable=0;recursiveResize=0;strokeColor=inherit;fillColor=inherit;rounded=0;align=center;verticalAlign=middle;fontFamily=OPPO Sans;fontSize=18;fontColor=default;html=1;" vertex="1" parent="nqMz8pj0lUQ_KVnc3Pqh-50">
            <mxGeometry x="93" width="547" height="31" as="geometry">
              <mxRectangle width="547" height="31" as="alternateBounds" />
            </mxGeometry>
          </mxCell>
        </UserObject>
        <mxCell id="nqMz8pj0lUQ_KVnc3Pqh-53" value="自左向右" style="connectable=0;recursiveResize=0;strokeColor=inherit;fillColor=inherit;rounded=0;align=center;verticalAlign=middle;fontFamily=OPPO Sans;fontSize=18;fontColor=default;" vertex="1" parent="nqMz8pj0lUQ_KVnc3Pqh-50">
          <mxGeometry x="640" width="160" height="31" as="geometry">
            <mxRectangle width="160" height="31" as="alternateBounds" />
          </mxGeometry>
        </mxCell>
        <mxCell id="nqMz8pj0lUQ_KVnc3Pqh-54" value="" style="shape=tableRow;horizontal=0;startSize=0;swimlaneHead=0;swimlaneBody=0;top=0;left=0;bottom=0;right=0;dropTarget=0;collapsible=0;recursiveResize=0;expand=0;fontStyle=0;strokeColor=inherit;fillColor=#ffffff;rounded=0;align=center;verticalAlign=middle;fontFamily=OPPO Sans;fontSize=18;fontColor=default;" vertex="1" parent="nqMz8pj0lUQ_KVnc3Pqh-1">
          <mxGeometry y="412" width="800" height="32" as="geometry" />
        </mxCell>
        <mxCell id="nqMz8pj0lUQ_KVnc3Pqh-55" value="13" style="connectable=0;recursiveResize=0;strokeColor=inherit;fillColor=inherit;align=center;rounded=0;verticalAlign=middle;fontFamily=OPPO Sans;fontSize=18;fontColor=default;" vertex="1" parent="nqMz8pj0lUQ_KVnc3Pqh-54">
          <mxGeometry width="93" height="32" as="geometry">
            <mxRectangle width="93" height="32" as="alternateBounds" />
          </mxGeometry>
        </mxCell>
        <UserObject label="?:" tooltip="三目运算符：布尔表达式 ? 表达式1 : 表达式2; 。根据表达式的计算返回一个 true 或者 false，如果是 true，就把表达式 1 作为结果返回；如果是 false，就把表达式 2 作为结果。" id="nqMz8pj0lUQ_KVnc3Pqh-56">
          <mxCell style="connectable=0;recursiveResize=0;strokeColor=inherit;fillColor=inherit;align=center;rounded=0;verticalAlign=middle;fontFamily=OPPO Sans;fontSize=18;fontColor=default;" vertex="1" parent="nqMz8pj0lUQ_KVnc3Pqh-54">
            <mxGeometry x="93" width="547" height="32" as="geometry">
              <mxRectangle width="547" height="32" as="alternateBounds" />
            </mxGeometry>
          </mxCell>
        </UserObject>
        <mxCell id="nqMz8pj0lUQ_KVnc3Pqh-57" value="自右向左" style="connectable=0;recursiveResize=0;strokeColor=inherit;fillColor=inherit;align=center;rounded=0;verticalAlign=middle;fontFamily=OPPO Sans;fontSize=18;fontColor=default;" vertex="1" parent="nqMz8pj0lUQ_KVnc3Pqh-54">
          <mxGeometry x="640" width="160" height="32" as="geometry">
            <mxRectangle width="160" height="32" as="alternateBounds" />
          </mxGeometry>
        </mxCell>
        <mxCell id="nqMz8pj0lUQ_KVnc3Pqh-58" value="" style="shape=tableRow;horizontal=0;startSize=0;swimlaneHead=0;swimlaneBody=0;top=0;left=0;bottom=0;right=0;dropTarget=0;collapsible=0;recursiveResize=0;expand=0;fontStyle=1;strokeColor=inherit;fillColor=#EAF2D3;rounded=0;align=center;verticalAlign=middle;fontFamily=OPPO Sans;fontSize=18;fontColor=default;" vertex="1" parent="nqMz8pj0lUQ_KVnc3Pqh-1">
          <mxGeometry y="444" width="800" height="31" as="geometry" />
        </mxCell>
        <mxCell id="nqMz8pj0lUQ_KVnc3Pqh-59" value="14" style="connectable=0;recursiveResize=0;strokeColor=inherit;fillColor=inherit;rounded=0;align=center;verticalAlign=middle;fontFamily=OPPO Sans;fontSize=18;fontColor=default;" vertex="1" parent="nqMz8pj0lUQ_KVnc3Pqh-58">
          <mxGeometry width="93" height="31" as="geometry">
            <mxRectangle width="93" height="31" as="alternateBounds" />
          </mxGeometry>
        </mxCell>
        <UserObject label="=、+=、-=、*=、/=、&amp;=、|=、^=、~=、&lt;&lt;=、&gt;&gt;=、&gt;&gt;&gt;=" tooltip="= 赋值运算符，将符号右边的计算的结果值赋给左边的变量。&#xa;+= 和赋值运算符，将符号左边的值与右边的加起来再赋给左边的变量。&#xa;-= 减赋值运算符，将符号左边的值减去右边的值，再将结果赋给左边的变量。&#xa;*= 积赋值运算符，将符号左边的值与右边的相乘再赋给左边的变量。&#xa;/= 商赋值运算符，将符号左边的值除以右边的值，再将结果赋给左边的变量。&#xa;%= 取余赋值运算符，将符号左边的值除以右边的值，再将除后的余数赋给左边的变量。&#xa;&amp;= 按位与赋值运算符，将符号两边的值二进制比较，对应位的值都为 1，则结果为 1，否则为 0，再将结果赋给左边的变量。&#xa;!= 按位或赋值运算符，将符号两边的值二进制比较，对应位的值都为 0，则结果为 0，否则为 1，再将结果赋给左边的变量。&#xa;^= 按位异或赋值运算符，将符号两边的值二进制比较，对应位的值相同，则结果为 0，否则为 1，再将结果赋给左边的变量。&#xa;&lt;&lt;= 左移赋值运算符，将左边的值的二进制数向左移动右边值个单位，再赋给左边的变量。&#xa;&gt;&gt;= 右移赋值运算符，将左边的值的二进制数向右移动右边值个单位，再赋给左边的变量。" id="nqMz8pj0lUQ_KVnc3Pqh-60">
          <mxCell style="connectable=0;recursiveResize=0;strokeColor=inherit;fillColor=inherit;rounded=0;align=center;verticalAlign=middle;fontFamily=OPPO Sans;fontSize=18;fontColor=default;" vertex="1" parent="nqMz8pj0lUQ_KVnc3Pqh-58">
            <mxGeometry x="93" width="547" height="31" as="geometry">
              <mxRectangle width="547" height="31" as="alternateBounds" />
            </mxGeometry>
          </mxCell>
        </UserObject>
        <mxCell id="nqMz8pj0lUQ_KVnc3Pqh-61" value="自右向左" style="connectable=0;recursiveResize=0;strokeColor=inherit;fillColor=inherit;rounded=0;align=center;verticalAlign=middle;fontFamily=OPPO Sans;fontSize=18;fontColor=default;" vertex="1" parent="nqMz8pj0lUQ_KVnc3Pqh-58">
          <mxGeometry x="640" width="160" height="31" as="geometry">
            <mxRectangle width="160" height="31" as="alternateBounds" />
          </mxGeometry>
        </mxCell>
      </root>
    </mxGraphModel>
  </diagram>
</mxfile>
